# This file uses centimeters as units for non-parametric coordinates.

mtllib NH_MotelSignTopBlock.mtl
g default
v 176.776672 -50.000000 -176.776672
v 0.000000 -50.000000 -249.999969
v -176.776672 -50.000000 -176.776672
v -249.999969 -50.000000 0.000000
v -176.776672 -50.000000 176.776672
v 0.000000 -50.000000 249.999985
v 176.776688 -50.000000 176.776688
v 250.000000 -50.000000 0.000000
v 176.776672 50.000000 -176.776672
v 0.000000 50.000000 -249.999969
v -176.776672 50.000000 -176.776672
v -249.999969 50.000000 0.000000
v -176.776672 50.000000 176.776672
v 0.000000 50.000000 249.999985
v 176.776688 50.000000 176.776688
v 250.000000 50.000000 0.000000
v 0.000000 -50.000000 0.000000
v 0.000000 50.000000 0.000000
vt 0.272975 0.852719
vt 0.272975 0.677339
vt 0.372185 0.677339
vt 0.372185 0.852719
vt 0.272975 0.501959
vt 0.372185 0.501959
vt 0.062512 0.852719
vt 0.062512 0.677339
vt 0.161722 0.677339
vt 0.161722 0.852719
vt 0.062512 0.501959
vt 0.161722 0.501959
vt 0.249980 0.001992
vt 0.425360 0.074637
vt 0.249980 0.250017
vt 0.498004 0.250017
vt 0.074600 0.074637
vt 0.425360 0.425397
vt 0.001955 0.250017
vt 0.249980 0.498041
vt 0.074600 0.425397
vt 0.906842 0.925363
vt 0.731462 0.998008
vt 0.731462 0.749983
vt 0.556082 0.925363
vt 0.979487 0.749983
vt 0.483437 0.749983
vt 0.906842 0.574604
vt 0.556082 0.574604
vt 0.731462 0.501959
vt 0.477416 0.501959
vt 0.477416 0.677339
vt 0.378206 0.677339
vt 0.378206 0.501959
vt 0.477416 0.852719
vt 0.378206 0.852719
vt 0.167743 0.852719
vt 0.167743 0.677339
vt 0.266953 0.677339
vt 0.266953 0.852719
vt 0.167743 0.501959
vt 0.266953 0.501959
vn 0.382683 0.000000 -0.923880
vn 0.382683 0.000000 -0.923880
vn 0.382683 0.000000 -0.923880
vn 0.382683 0.000000 -0.923880
vn -0.382683 0.000000 -0.923880
vn -0.382683 0.000000 -0.923880
vn -0.382683 0.000000 -0.923880
vn -0.382683 0.000000 -0.923880
vn -0.923880 0.000000 -0.382683
vn -0.923880 0.000000 -0.382683
vn -0.923880 0.000000 -0.382683
vn -0.923880 0.000000 -0.382683
vn -0.923880 0.000000 0.382683
vn -0.923880 0.000000 0.382683
vn -0.923880 0.000000 0.382683
vn -0.923880 0.000000 0.382683
vn -0.382683 0.000000 0.923880
vn -0.382683 0.000000 0.923880
vn -0.382683 0.000000 0.923880
vn -0.382683 0.000000 0.923880
vn 0.382683 0.000000 0.923880
vn 0.382683 0.000000 0.923880
vn 0.382683 0.000000 0.923880
vn 0.382683 0.000000 0.923880
vn 0.923880 0.000000 0.382684
vn 0.923880 0.000000 0.382684
vn 0.923880 0.000000 0.382684
vn 0.923880 0.000000 0.382684
vn 0.923879 0.000000 -0.382684
vn 0.923879 0.000000 -0.382684
vn 0.923879 0.000000 -0.382684
vn 0.923879 0.000000 -0.382684
vn 0.000000 -1.000000 0.000000
vn 0.000000 -1.000000 0.000000
vn 0.000000 -1.000000 0.000000
vn 0.000000 -1.000000 0.000000
vn 0.000000 -1.000000 0.000000
vn 0.000000 -1.000000 -0.000000
vn 0.000000 -1.000000 0.000000
vn 0.000000 -1.000000 0.000000
vn 0.000000 -1.000000 0.000000
vn 0.000000 1.000000 0.000000
vn 0.000000 1.000000 0.000000
vn 0.000000 1.000000 0.000000
vn 0.000000 1.000000 0.000000
vn 0.000000 1.000000 0.000000
vn 0.000000 1.000000 -0.000000
vn 0.000000 1.000000 0.000000
vn 0.000000 1.000000 0.000000
vn 0.000000 1.000000 0.000000
s off
g pCylinder1
usemtl initialShadingGroup
f 1/31/1 2/32/2 10/33/3 9/34/4
f 2/32/5 3/35/6 11/36/7 10/33/8
f 3/1/9 4/2/10 12/3/11 11/4/12
f 4/2/13 5/5/14 13/6/15 12/3/16
f 5/37/17 6/38/18 14/39/19 13/40/20
f 6/38/21 7/41/22 15/42/23 14/39/24
f 7/7/25 8/8/26 16/9/27 15/10/28
f 8/8/29 1/11/30 9/12/31 16/9/32
s 1
f 2/13/33 1/14/34 17/15/35
f 3/17/36 2/13/33 17/15/35
f 4/19/37 3/17/36 17/15/35
f 5/21/38 4/19/37 17/15/35
f 6/20/39 5/21/38 17/15/35
f 7/18/40 6/20/39 17/15/35
f 8/16/41 7/18/40 17/15/35
f 1/14/34 8/16/41 17/15/35
s 2
f 9/22/42 10/23/43 18/24/44
f 10/23/43 11/25/45 18/24/44
f 11/25/45 12/27/46 18/24/44
f 12/27/46 13/29/47 18/24/44
f 13/29/47 14/30/48 18/24/44
f 14/30/48 15/28/49 18/24/44
f 15/28/49 16/26/50 18/24/44
f 16/26/50 9/22/42 18/24/44
