# This file uses centimeters as units for non-parametric coordinates.

mtllib NH_MotelRoofEdgeBlock.mtl
g default
v -273.829498 -73.842339 270.507874
v -271.000397 -75.000000 271.000397
v -271.000397 -73.802826 273.339020
v -271.000397 -71.205643 273.735229
v -273.829498 -71.104477 272.481232
v -275.000000 -71.000397 269.450836
v 273.829498 -73.842339 270.507874
v 275.000000 -71.000397 269.450836
v 273.829498 -71.104477 272.481232
v 271.000397 -71.205643 273.735229
v 271.000397 -73.802826 273.339020
v 271.000397 -75.000000 271.000397
v -273.829468 73.816193 221.287628
v -275.000000 71.000397 222.117233
v -273.829468 71.103790 225.050873
v -271.000397 71.205643 226.264771
v -271.000397 73.952553 224.245026
v -271.000397 75.000000 221.000381
v 273.829468 73.816193 221.287628
v 271.000397 75.000000 221.000381
v 271.000397 73.952553 224.245026
v 271.000397 71.205643 226.264771
v 273.829468 71.103790 225.050873
v 275.000000 71.000397 222.117233
v -273.828552 71.000397 -273.828552
v -275.000000 71.000397 -271.000397
v -273.828552 73.828545 -271.000397
v -271.000397 75.000000 -271.000397
v -271.000397 73.828545 -273.828552
v -271.000397 71.000397 -275.000000
v 273.828552 71.000397 -273.828552
v 271.000397 71.000397 -275.000000
v 271.000397 73.828545 -273.828552
v 271.000397 75.000000 -271.000397
v 273.828552 73.828545 -271.000397
v 275.000000 71.000397 -271.000397
v -273.828552 -73.828545 -271.000397
v -275.000000 -71.000397 -271.000397
v -273.828552 -71.000397 -273.828552
v -271.000397 -71.000397 -275.000000
v -271.000397 -73.828545 -273.828552
v -271.000397 -75.000000 -271.000397
v 273.828552 -73.828545 -271.000397
v 271.000397 -75.000000 -271.000397
v 271.000397 -73.828545 -273.828552
v 271.000397 -71.000397 -275.000000
v 273.828552 -71.000397 -273.828552
v 275.000000 -71.000397 -271.000397
v -273.309479 -73.301834 272.644043
v 273.309479 -73.301834 272.644043
v -273.310059 73.385193 223.835999
v 273.310059 73.385193 223.835999
v -273.308746 73.308777 -273.308746
v 273.308746 73.308777 -273.308746
v -273.308746 -73.308746 -273.308777
v 273.308746 -73.308746 -273.308777
vt 0.310535 0.472559
vt 0.312947 0.473456
vt 0.312947 0.932224
vt 0.310547 0.932224
vt 0.312859 0.470884
vt 0.310994 0.470746
vt 0.433486 0.513636
vt 0.433486 0.932224
vt 0.312947 0.934625
vt 0.310988 0.934184
vt 0.433574 0.511146
vt 0.435877 0.514340
vt 0.435887 0.932224
vt 0.433486 0.934625
vt 0.435511 0.512177
vt 0.435446 0.934184
vt 0.181460 0.931915
vt 0.179048 0.932812
vt 0.179059 0.473146
vt 0.181460 0.473146
vt 0.181372 0.934487
vt 0.179506 0.934625
vt 0.181460 0.470746
vt 0.179500 0.471187
vt 0.301999 0.473146
vt 0.301999 0.891735
vt 0.302087 0.894225
vt 0.301999 0.470746
vt 0.304389 0.891031
vt 0.304400 0.473146
vt 0.304023 0.893194
vt 0.303958 0.471187
vt 0.464476 0.464353
vt 0.464058 0.466754
vt 0.004393 0.466753
vt 0.004393 0.464353
vt 0.466462 0.464353
vt 0.465872 0.466313
vt 0.001992 0.464353
vt 0.002433 0.466312
vt 0.004393 0.004269
vt 0.464476 0.004269
vt 0.466462 0.004269
vt 0.001992 0.004269
vt 0.464058 0.001868
vt 0.004393 0.001868
vt 0.465872 0.002309
vt 0.002433 0.002310
vt 0.577723 0.935632
vt 0.577967 0.933231
vt 0.995607 0.933231
vt 0.995607 0.935631
vt 0.575213 0.933231
vt 0.575560 0.935191
vt 0.577967 0.473147
vt 0.995607 0.473147
vt 0.998008 0.933231
vt 0.997567 0.935190
vt 0.575213 0.473147
vt 0.574529 0.935632
vt 0.573498 0.933231
vt 0.577723 0.470746
vt 0.995607 0.470746
vt 0.998008 0.473147
vt 0.573498 0.473147
vt 0.575560 0.471186
vt 0.997567 0.471188
vt 0.574529 0.470746
vt 0.476038 0.464353
vt 0.473833 0.464353
vt 0.473833 0.004269
vt 0.476038 0.004269
vt 0.476124 0.466754
vt 0.474259 0.466313
vt 0.476124 0.001868
vt 0.474259 0.002309
vt 0.596926 0.004269
vt 0.596926 0.464353
vt 0.596839 0.466754
vt 0.596839 0.001868
vt 0.444423 0.935630
vt 0.444423 0.933230
vt 0.564962 0.933230
vt 0.564962 0.935630
vt 0.442022 0.933230
vt 0.442464 0.935189
vt 0.444423 0.473146
vt 0.564962 0.473146
vt 0.567363 0.933230
vt 0.566922 0.935189
vt 0.442022 0.473146
vt 0.444423 0.470746
vt 0.564962 0.470746
vt 0.567363 0.473146
vt 0.442464 0.471187
vt 0.566922 0.471187
vn -0.001920 -0.999996 0.002197
vn -0.380724 -0.924688 0.001092
vn -0.380557 -0.924757 -0.001343
vn -0.002133 -0.999995 -0.002146
vn -0.924587 -0.380965 0.001955
vn -0.999928 -0.011543 0.003343
vn -0.999962 -0.008438 -0.002237
vn -0.924327 -0.381599 -0.001335
vn -0.001928 0.308776 0.951133
vn -0.001491 -0.150579 0.988597
vn 0.001491 -0.150579 0.988597
vn 0.001928 0.308776 0.951133
vn -0.001491 -0.890250 0.455469
vn 0.001920 -0.999996 0.002197
vn 0.001491 -0.890250 0.455469
vn -0.925146 0.113425 0.362272
vn -0.923830 0.124242 0.362081
vn -0.999982 0.005880 0.001564
vn -0.382436 0.288509 0.877784
vn -0.002253 0.322685 0.946504
vn -0.381418 0.296898 0.875427
vn 0.999928 -0.011543 0.003343
vn 0.924587 -0.380965 0.001955
vn 0.924327 -0.381599 -0.001335
vn 0.999962 -0.008438 -0.002237
vn 0.380724 -0.924688 0.001092
vn 0.002133 -0.999995 -0.002146
vn 0.380557 -0.924757 -0.001343
vn 0.382436 0.288509 0.877784
vn 0.381418 0.296898 0.875427
vn 0.002253 0.322685 0.946504
vn 0.925146 0.113425 0.362272
vn 0.999982 0.005880 0.001564
vn 0.923830 0.124242 0.362081
vn -0.923584 0.383394 0.001027
vn -0.923708 0.383095 -0.001461
vn -0.999968 0.007703 -0.002241
vn -0.384047 0.923313 0.001476
vn -0.002283 0.999995 0.002110
vn -0.002158 0.999995 -0.002363
vn -0.384176 0.923259 -0.001451
vn -0.001312 0.951681 0.307086
vn 0.001312 0.951681 0.307086
vn 0.002283 0.999995 0.002110
vn -0.001312 0.592276 0.805734
vn 0.001312 0.592276 0.805734
vn 0.384047 0.923313 0.001476
vn 0.384176 0.923259 -0.001451
vn 0.002158 0.999995 -0.002363
vn 0.923584 0.383394 0.001027
vn 0.999968 0.007703 -0.002241
vn 0.923708 0.383095 -0.001461
vn -0.924102 0.005020 -0.382114
vn -0.924102 -0.005020 -0.382114
vn -0.382117 0.005020 -0.924100
vn -0.002136 0.008074 -0.999965
vn -0.002136 -0.008074 -0.999965
vn -0.382117 -0.005020 -0.924100
vn -0.001329 0.382532 -0.923941
vn 0.001329 0.382532 -0.923941
vn 0.002136 0.008074 -0.999965
vn -0.001329 0.923941 -0.382533
vn 0.001329 0.923941 -0.382533
vn 0.382117 0.005020 -0.924100
vn 0.382117 -0.005020 -0.924100
vn 0.002136 -0.008074 -0.999965
vn 0.924102 0.005020 -0.382114
vn 0.924102 -0.005020 -0.382114
vn -0.001329 -0.923941 -0.382533
vn 0.001329 -0.923941 -0.382533
vn -0.001329 -0.382532 -0.923941
vn 0.001329 -0.382532 -0.923941
vn -0.918840 -0.230741 0.320144
vn -0.362031 -0.853981 0.373699
vn -0.362026 -0.084460 0.928334
vn 0.362031 -0.853982 0.373697
vn 0.918839 -0.230745 0.320145
vn 0.362030 -0.084459 0.928333
vn -0.316911 0.911803 0.261118
vn -0.866950 0.404317 0.291418
vn -0.316920 0.536059 0.782434
vn 0.866949 0.404321 0.291418
vn 0.316911 0.911803 0.261119
vn 0.316922 0.536058 0.782434
vn -0.325265 0.325277 -0.887917
vn -0.887920 0.325264 -0.325272
vn -0.325273 0.887919 -0.325266
vn 0.887919 0.325267 -0.325271
vn 0.325261 0.325278 -0.887919
vn 0.325272 0.887919 -0.325266
vn -0.325271 -0.887918 -0.325269
vn -0.887921 -0.325261 -0.325272
vn -0.325271 -0.325275 -0.887916
vn 0.887921 -0.325263 -0.325271
vn 0.325272 -0.887917 -0.325271
vn 0.325269 -0.325275 -0.887917
s 1
g pCube1
usemtl initialShadingGroup
f 2/33/1 1/34/2 37/35/3 42/36/4
s 2
f 1/1/5 6/2/6 38/3/7 37/4/8
s 3
f 4/69/9 3/70/10 11/71/11 10/72/12
s 1
f 3/37/13 2/33/1 12/42/14 11/43/15
s 2
f 6/2/6 5/5/16 15/11/17 14/7/18
s 3
f 5/73/19 4/69/9 16/78/20 15/79/21
s 4
f 8/17/22 7/18/23 43/19/24 48/20/25
s 1
f 7/45/26 12/42/14 44/41/27 43/46/28
s 3
f 10/72/12 9/75/29 23/80/30 22/77/31
s 4
f 9/21/32 8/17/22 24/26/33 23/27/34
s 2
f 14/7/18 13/12/35 27/13/36 26/8/37
s 5
f 13/49/38 18/50/39 28/51/40 27/52/41
f 18/50/39 17/53/42 21/59/43 20/55/44
s 3
f 17/53/45 16/61/20 22/65/31 21/59/46
s 5
f 20/55/44 19/62/47 35/63/48 34/56/49
s 4
f 19/29/50 24/26/33 36/25/51 35/30/52
s 2
f 26/8/37 25/14/53 39/9/54 38/3/7
s 6
f 25/81/55 30/82/56 40/83/57 39/84/58
f 30/82/56 29/85/59 33/91/60 32/87/61
s 5
f 29/57/62 28/51/40 34/56/49 33/64/63
s 6
f 32/87/61 31/92/64 47/93/65 46/88/66
s 4
f 31/28/67 36/25/51 48/20/25 47/23/68
s 1
f 42/36/4 41/39/69 45/44/70 44/41/27
s 6
f 41/89/71 40/83/57 46/88/66 45/94/72
s 3
f 4/69/9 10/72/12 22/77/31 16/78/20
s 5
f 18/50/39 20/55/44 34/56/49 28/51/40
s 6
f 30/82/56 32/87/61 46/88/66 40/83/57
s 1
f 42/36/4 44/41/27 12/42/14 2/33/1
s 4
f 8/17/22 48/20/25 36/25/51 24/26/33
s 2
f 38/3/7 6/2/6 14/7/18 26/8/37
f 5/5/16 6/2/6 1/1/5 49/6/73
s 1
f 1/34/2 2/33/1 3/37/13 49/38/74
s 3
f 3/70/10 4/69/9 5/73/19 49/74/75
s 1
f 11/43/15 12/42/14 7/45/26 50/47/76
s 4
f 7/18/23 8/17/22 9/21/32 50/22/77
s 3
f 9/75/29 10/72/12 11/71/11 50/76/78
s 5
f 17/53/42 18/50/39 13/49/38 51/54/79
s 2
f 13/12/35 14/7/18 15/11/17 51/15/80
s 3
f 15/60/21 16/61/20 17/53/45 51/54/81
s 4
f 23/27/34 24/26/33 19/29/50 52/31/82
s 5
f 19/62/47 20/55/44 21/59/43 52/66/83
s 3
f 21/59/46 22/65/31 23/68/30 52/66/84
s 6
f 29/85/59 30/82/56 25/81/55 53/86/85
s 2
f 25/14/53 26/8/37 27/13/36 53/16/86
s 5
f 27/52/41 28/51/40 29/57/62 53/58/87
s 4
f 35/30/52 36/25/51 31/28/67 54/32/88
s 6
f 31/92/64 32/87/61 33/91/60 54/95/89
s 5
f 33/64/63 34/56/49 35/63/48 54/67/90
s 1
f 41/39/69 42/36/4 37/35/3 55/40/91
s 2
f 37/4/8 38/3/7 39/9/54 55/10/92
s 6
f 39/84/58 40/83/57 41/89/71 55/90/93
s 4
f 47/23/68 48/20/25 43/19/24 56/24/94
s 1
f 43/46/28 44/41/27 45/44/70 56/48/95
s 6
f 45/94/72 46/88/66 47/93/65 56/96/96
