# This file uses centimeters as units for non-parametric coordinates.

mtllib NH_MotelRoofCornerBlock.mtl
g default
v -275.000000 -75.000000 275.000000
v 275.000000 -75.000000 275.000000
v -275.000000 75.000000 224.999985
v 225.000000 75.000000 224.999985
v -275.000000 75.000000 -275.000000
v 225.000000 75.000000 -275.000000
v -275.000000 -75.000000 -275.000000
v 275.000000 -75.000000 -275.000000
vt 0.784987 0.998008
vt 0.784987 0.501840
vt 0.920306 0.501840
vt 0.920306 0.952902
vt 0.644011 0.998008
vt 0.644011 0.501840
vt 0.779330 0.546947
vt 0.779330 0.998008
vt 0.187292 0.501840
vt 0.638354 0.501840
vt 0.638354 0.952902
vt 0.187292 0.952902
vt 0.285976 0.001992
vt 0.782144 0.001992
vt 0.782144 0.498160
vt 0.285976 0.498160
vt 0.001837 0.498160
vt 0.001837 0.001992
vt 0.137155 0.047098
vt 0.137155 0.498160
vt 0.143996 0.498160
vt 0.143996 0.047098
vt 0.279315 0.001992
vt 0.279315 0.498160
vn 0.000000 0.316228 0.948683
vn 0.000000 0.316228 0.948683
vn 0.000000 0.316228 0.948683
vn 0.000000 0.316228 0.948683
vn 0.000000 1.000000 0.000000
vn 0.000000 1.000000 0.000000
vn 0.000000 1.000000 0.000000
vn 0.000000 1.000000 0.000000
vn 0.000000 0.000000 -1.000000
vn 0.000000 0.000000 -1.000000
vn 0.000000 0.000000 -1.000000
vn 0.000000 0.000000 -1.000000
vn 0.000000 -1.000000 0.000000
vn 0.000000 -1.000000 0.000000
vn 0.000000 -1.000000 0.000000
vn 0.000000 -1.000000 0.000000
vn 0.948683 0.316228 0.000000
vn 0.948683 0.316228 0.000000
vn 0.948683 0.316228 0.000000
vn 0.948683 0.316228 0.000000
vn -1.000000 0.000000 0.000000
vn -1.000000 0.000000 0.000000
vn -1.000000 0.000000 0.000000
vn -1.000000 0.000000 0.000000
s off
g pCube1
usemtl initialShadingGroup
f 1/17/1 2/18/2 4/19/3 3/20/4
f 3/9/5 4/10/6 6/11/7 5/12/8
f 5/21/9 6/22/10 8/23/11 7/24/12
f 7/13/13 8/14/14 2/15/15 1/16/16
f 2/1/17 8/2/18 6/3/19 4/4/20
f 7/5/21 1/6/22 3/7/23 5/8/24
