# This file uses centimeters as units for non-parametric coordinates.

mtllib NH_PumpTopBlock.mtl
g default
v -25.000000 -25.000000 100.000000
v 25.000000 -25.000000 100.000000
v -25.000000 25.000000 100.000000
v 25.000000 25.000000 100.000000
v -25.000000 25.000000 -100.000000
v 25.000000 25.000000 -100.000000
v -25.000000 -25.000000 -100.000000
v 25.000000 -25.000000 -100.000000
vt 0.410452 0.795870
vt 0.410452 0.001992
vt 0.608922 0.001992
vt 0.608922 0.795870
vt 0.614674 0.795870
vt 0.614674 0.001992
vt 0.813143 0.001992
vt 0.813143 0.795870
vt 0.001831 0.001992
vt 0.200300 0.001992
vt 0.200300 0.795870
vt 0.001831 0.795870
vt 0.206231 0.001992
vt 0.404701 0.001992
vt 0.404701 0.795870
vt 0.206231 0.795870
vt 0.718867 0.799539
vt 0.917336 0.799539
vt 0.917336 0.998008
vt 0.718867 0.998008
vt 0.514758 0.799539
vt 0.713228 0.799539
vt 0.713228 0.998008
vt 0.514758 0.998008
vn 0.000000 0.000000 1.000000
vn 0.000000 0.000000 1.000000
vn 0.000000 0.000000 1.000000
vn 0.000000 0.000000 1.000000
vn 0.000000 1.000000 0.000000
vn 0.000000 1.000000 0.000000
vn 0.000000 1.000000 0.000000
vn 0.000000 1.000000 0.000000
vn 0.000000 0.000000 -1.000000
vn 0.000000 0.000000 -1.000000
vn 0.000000 0.000000 -1.000000
vn 0.000000 0.000000 -1.000000
vn 0.000000 -1.000000 0.000000
vn 0.000000 -1.000000 0.000000
vn 0.000000 -1.000000 0.000000
vn 0.000000 -1.000000 0.000000
vn 1.000000 0.000000 0.000000
vn 1.000000 0.000000 0.000000
vn 1.000000 0.000000 0.000000
vn 1.000000 0.000000 0.000000
vn -1.000000 0.000000 0.000000
vn -1.000000 0.000000 0.000000
vn -1.000000 0.000000 0.000000
vn -1.000000 0.000000 0.000000
s off
g pCube1
usemtl initialShadingGroup
f 1/17/1 2/18/2 4/19/3 3/20/4
f 3/9/5 4/10/6 6/11/7 5/12/8
f 5/21/9 6/22/10 8/23/11 7/24/12
f 7/13/13 8/14/14 2/15/15 1/16/16
f 2/1/17 8/2/18 6/3/19 4/4/20
f 7/5/21 1/6/22 3/7/23 5/8/24
